:SAMPLES-PER-SECOND 30
:FULLY-SPECIFIED
:DEGREES
56
root  34.8050936 36.58122866 -13.96793155 10.18933773 -4.652442455 3.209164619
lowerback  -8.653511047 -0.3415512443 -0.4030510783
upperback  -3.441400051 0.03758052737 -3.424720049
thorax  1.289340019 0.1663126051 -3.30960989
lowerneck  -12.42029953 -8.829119682 -6.62612009
upperneck  15.67959976 -12.13440037 8.915499687
head  7.846690178 -5.259039879 2.682840109
lclavicle  0 -4.497500157e-015 -2.743230041e-014
lhumerus  -48.17860031 31.64679909 62.55199814
lradius  0.001172923949 -6.507048965e-006 29.65260124
lwrist  3.192251654e-007 -3.790274832e-007 -29.34519958
lhand  -0 -36.79550171 -10.62930012
lfingers  90 7.125020027 -90
lthumb  94.75747152 -25.46967164 100.9531188
rclavicle  0 -4.497500157e-015 -2.743230041e-014
rhumerus  -45.59000015 -23.6916008 -61.0080986
rradius  -5.16745672e-007 2.214343908e-008 77.91629791
rwrist  0.0003490542294 -0.002273720223 -169.302002
rhand  -1.76556477e-031 0.09148520231 -8.04294014
rfingers  -90 -7.125020027 -90
rthumb  -86.22021713 -7.807151607 -64.06399062
rfemur  -10.71599483 14.34331322 12.4820385
rtibia  0.5273982286 -1.197219014 17.05313683
rfoot  1.979060769 -21.92767525 -34.22722626
rtoes  4.073877005 19.59734809 -101.9884716
lfemur  -1.898600936 -15.30720234 -23.14757347
ltibia  8.431934357 -0.3307988942 4.027359962
lfoot  0.1121992618 -20.14486885 35.74672318
ltoes  -8.63785558 -18.1077881 -116.0478779
57
root  34.80312317 36.58082917 -13.96583647 10.20233822 -4.700030804 3.208101273
lowerback  -8.650870323 -0.3396202028 -0.4175332487
upperback  -3.438770056 0.03664021567 -3.431979895
thorax  1.291059971 0.1656165868 -3.307869911
lowerneck  -12.3156004 -8.938090324 -6.715350151
upperneck  15.62800026 -12.27700043 8.957229614
head  7.831610203 -5.332930088 2.696249962
lclavicle  0 -4.497500157e-015 -2.743230041e-014
lhumerus  -48.09000015 31.5114994 62.69469833
lradius  0.001172923949 -6.507048965e-006 29.67779922
lwrist  3.192251654e-007 -3.790274832e-007 -29.01679993
lhand  -0 -36.79800034 -10.78110027
lfingers  90 7.125020027 -90
lthumb  94.79065068 -25.61859576 100.9696287
rclavicle  0 -4.497500157e-015 -2.743230041e-014
rhumerus  -45.21409988 -23.4362011 -60.74000168
rradius  -5.16745672e-007 2.214343908e-008 79.23840332
rwrist  0.0003490542294 -0.002273720223 -169.6210022
rhand  -1.765579402e-031 0.2505649924 -8.051950455
rfingers  -90 -7.125020027 -90
rthumb  -86.19357973 -7.808848994 -63.90981447
rfemur  -10.73688507 14.37104988 12.4840765
rtibia  0.5294321775 -1.186362982 17.04961586
rfoot  1.993505955 -21.89662552 -34.1987648
rtoes  4.095643453 19.59298161 -102.053374
lfemur  -1.914779663 -15.26320934 -23.13489342
ltibia  8.43366909 -0.3281651735 4.027774811
lfoot  0.1133148149 -20.14484215 35.73642731
ltoes  -8.630516254 -18.11119585 -116.0242662
58
root  34.79978306 36.58026748 -13.96228009 10.21625328 -4.736807346 3.205194473
lowerback  -8.619729996 -0.3373573422 -0.4197201133
upperback  -3.445559978 0.03488795459 -3.428679943
thorax  1.266849995 0.1641501784 -3.303090096
lowerneck  -12.23029995 -9.026209831 -6.846399784
upperneck  15.61530018 -12.39260101 9.049929619
head  7.837049961 -5.389150143 2.735290051
lclavicle  0 -4.497500157e-015 -2.743230041e-014
lhumerus  -48.08050156 31.46949959 62.73609924
lradius  0.001172923949 -6.507048965e-006 29.70130157
lwrist  3.192251654e-007 -3.790274832e-007 -28.91519928
lhand  -4.409120671e-031 -36.78689957 -10.82520008
lfingers  90 7.125020027 -90
lthumb  94.79470849 -25.66229792 100.9617272
rclavicle  0 -4.497500157e-015 -2.743230041e-014
rhumerus  -44.8370018 -23.15259933 -60.43270111
rradius  -5.16745672e-007 2.214343908e-008 80.60579681
rwrist  0.0003490542294 -0.002273720223 -169.9889984
rhand  -1.765562525e-031 -0.004618879873 -7.909029961
rfingers  -90 -7.125020027 -90
rthumb  -86.17970089 -7.921839121 -64.14948011
rfemur  -10.76094151 14.37437916 12.47772026
rtibia  0.529520154 -1.177049279 17.0736084
rfoot  1.997668028 -21.88589859 -34.15311432
rtoes  4.118753288 19.58831892 -102.1222973
lfemur  -1.923472762 -15.30357647 -23.15024185
ltibia  8.434396744 -0.3728645146 4.027623177
lfoot  0.08653479069 -20.03745461 35.70832825
ltoes  -8.650106377 -18.10209181 -116.0873002
59
root  34.79658713 36.57995509 -13.95728194 10.23832035 -4.772233963 3.206048727
lowerback  -8.56826973 -0.3367080092 -0.411185354
upperback  -3.461469889 0.03170910105 -3.440259933
thorax  1.221809983 0.1622669995 -3.31998992
lowerneck  -12.04419994 -9.105919838 -6.947679996
upperneck  15.47990036 -12.50660133 9.194649696
head  7.786170006 -5.444650173 2.791769981
lclavicle  0 -4.497500157e-015 -2.743230041e-014
lhumerus  -48.06800079 31.34379959 62.78319931
lradius  0.001172923949 -6.507048965e-006 29.71529961
lwrist  3.192251654e-007 -3.790274832e-007 -28.81829834
lhand  -4.410813606e-031 -36.81629944 -10.72749996
lfingers  90 7.125020027 -90
lthumb  94.7879339 -25.5653888 100.9842911
rclavicle  0 -4.497500157e-015 -2.743230041e-014
rhumerus  -44.42839813 -22.86109924 -60.13019943
rradius  -5.16745672e-007 2.214343908e-008 81.8635025
rwrist  0.0003490542294 -0.002273720223 -170.3639984
rhand  -1.765563935e-031 0.07255460322 -7.86687994
rfingers  -90 -7.125020027 -90
rthumb  -86.1461214 -7.964387198 -64.07171273
rfemur  -10.75879574 14.32341576 12.45697117
rtibia  0.5445563197 -1.225137949 17.03461647
rfoot  2.004943371 -21.97582436 -34.10944366
rtoes  4.135575285 19.58490756 -102.1724776
lfemur  -1.946163774 -15.27556801 -23.14642715
ltibia  8.43593502 -0.3764691651 4.026458263
lfoot  0.07935348898 -20.02283859 35.68312073
ltoes  -8.655438447 -18.09960938 -116.1044622
